<svg width="12" height="12" viewBox="0 0 12 12" fill="none" xmlns="http://www.w3.org/2000/svg">
<path d="M1.5 6.5415C1.5 6.503 1.5 6.4835 1.501 6.4675C1.50888 6.34636 1.56056 6.23223 1.64639 6.14639C1.73223 6.06056 1.84636 6.00888 1.9675 6.001C1.984 6 2.0025 6 2.0415 6H9.9585C9.997 6 10.016 6 10.0325 6.001C10.1536 6.00888 10.2678 6.06056 10.3536 6.14639C10.4394 6.23223 10.4911 6.34636 10.499 6.4675C10.5 6.4835 10.5 6.5025 10.5 6.5415C10.5 6.739 10.5 6.838 10.493 6.949C10.3885 8.5925 8.9915 10.0435 7.353 10.209C7.2425 10.2205 7.178 10.223 7.049 10.228C6.6995 10.2418 6.34977 10.2491 6 10.25C5.675 10.25 5.318 10.2415 4.951 10.228C4.822 10.223 4.7575 10.2205 4.6475 10.2095C3.0085 10.0435 1.6115 8.5925 1.5075 6.949C1.5 6.838 1.5 6.739 1.5 6.5415Z" stroke="#3FB660"/>
<path d="M3 10L2.5 11M9 10L9.5 11M1 6H11" stroke="#3FB660" stroke-linecap="round"/>
<path d="M1.125 6.5C1.125 6.59946 1.16451 6.69484 1.23483 6.76516C1.30516 6.83549 1.40054 6.875 1.5 6.875C1.59946 6.875 1.69484 6.83549 1.76517 6.76516C1.83549 6.69484 1.875 6.59946 1.875 6.5H1.125ZM3.173 4.371L2.824 4.5085C2.84246 4.55517 2.8701 4.59766 2.90529 4.63345C2.94047 4.66924 2.98248 4.69761 3.02883 4.71686C3.07517 4.73612 3.12491 4.74588 3.1751 4.74556C3.22529 4.74524 3.2749 4.73485 3.321 4.715L3.173 4.371ZM6.153 3.0875L6.3015 3.4325C6.39099 3.39395 6.46197 3.32208 6.49939 3.23212C6.53682 3.14215 6.53775 3.04115 6.502 2.9505L6.153 3.0875ZM1.875 6.5V2.1925H1.125V6.5H1.875ZM2.6925 1.375C3.027 1.375 3.3275 1.5785 3.4515 1.889L4.148 1.61C4.0317 1.31916 3.83093 1.07033 3.57159 0.894677C3.31225 0.71902 3.00623 0.62509 2.693 0.625L2.6925 1.375ZM1.875 2.1925C1.875 1.741 2.241 1.375 2.6925 1.375L2.693 0.625C2.27727 0.625 1.87807 0.790147 1.58411 1.08411C1.29015 1.37807 1.125 1.77677 1.125 2.1925H1.875ZM3.4515 1.889L3.6415 2.363L4.3375 2.0845L4.148 1.61L3.4515 1.889ZM3.5215 4.2335C3.39572 3.91294 3.39823 3.55626 3.5285 3.2375L2.8335 2.955C2.63063 3.4523 2.62755 4.00863 2.824 4.5085L3.5215 4.2335ZM6.005 2.7435L3.0245 4.0265L3.321 4.715L6.301 3.432L6.005 2.7435ZM5.141 2.534C5.452 2.667 5.6835 2.9185 5.8045 3.225L6.502 2.9505C6.40663 2.70462 6.26325 2.47968 6.08023 2.28979C5.89721 2.0999 5.67821 1.94836 5.436 1.844L5.141 2.534ZM3.5285 3.2375C3.64578 2.9422 3.8685 2.70146 4.1535 2.561L3.8255 1.887C3.37416 2.10811 3.02075 2.4886 2.8335 2.955L3.5285 3.2375ZM4.1535 2.561C4.30642 2.48552 4.47387 2.44406 4.64434 2.43949C4.81482 2.43492 4.98425 2.46683 5.141 2.534L5.436 1.844C5.18033 1.73468 4.90407 1.68239 4.6261 1.68972C4.34814 1.69706 4.07505 1.76435 3.8255 1.887L4.1535 2.561Z" fill="#3FB660"/>
</svg>
