<svg width="14" height="12" viewBox="0 0 14 12" fill="none" xmlns="http://www.w3.org/2000/svg">
<path fill-rule="evenodd" clip-rule="evenodd" d="M6.38384 0.895874H7.61584C8.688 0.895874 9.53734 0.895874 10.2018 0.985124C10.8854 1.07729 11.439 1.27096 11.8759 1.70729C12.3123 2.14421 12.5059 2.69779 12.5981 3.38146C12.6862 4.03829 12.6873 4.87479 12.6873 5.92946C12.888 6.09454 13.0473 6.30862 13.1482 6.55304C13.2188 6.72221 13.2462 6.89721 13.259 7.08212C13.2707 7.25946 13.2707 7.47587 13.2707 7.73546V7.76462C13.2707 8.02421 13.2707 8.24062 13.259 8.41796C13.2515 8.59922 13.214 8.77799 13.1482 8.94704C13.0676 9.14173 12.9495 9.31864 12.8006 9.46767C12.6516 9.61671 12.4748 9.73494 12.2802 9.81562C12.111 9.88562 11.936 9.91304 11.7511 9.92529C11.6744 9.9304 11.5975 9.9337 11.5207 9.93521V10.6667C11.5207 10.7827 11.4746 10.894 11.3925 10.9761C11.3105 11.0581 11.1992 11.1042 11.0832 11.1042C10.9671 11.1042 10.8559 11.0581 10.7738 10.9761C10.6918 10.894 10.6457 10.7827 10.6457 10.6667V9.93754H3.354V10.6667C3.354 10.7827 3.30791 10.894 3.22586 10.9761C3.14382 11.0581 3.03254 11.1042 2.9165 11.1042C2.80047 11.1042 2.68919 11.0581 2.60714 10.9761C2.5251 10.894 2.479 10.7827 2.479 10.6667V9.93462C2.40214 9.93331 2.32531 9.9302 2.24859 9.92529C2.06739 9.91813 1.88862 9.88107 1.7195 9.81562C1.52476 9.735 1.34782 9.6168 1.19878 9.46776C1.04975 9.31873 0.93154 9.14178 0.850921 8.94704C0.780921 8.77787 0.753504 8.60287 0.741254 8.41796C0.729004 8.24062 0.729004 8.02421 0.729004 7.76462V7.73546C0.729004 7.47587 0.729004 7.25946 0.740671 7.08212C0.753504 6.89662 0.781504 6.72221 0.851504 6.55304C0.95173 6.31041 1.10997 6.09609 1.31234 5.92887C1.31234 4.87537 1.3135 4.03829 1.40159 3.38146C1.49375 2.69779 1.68742 2.14421 2.12375 1.70729C2.56067 1.27096 3.11425 1.07729 3.79792 0.985124C4.46292 0.895874 5.31167 0.895874 6.38384 0.895874ZM2.18734 5.57946C2.38152 5.56691 2.57609 5.56126 2.77067 5.56254V5.09471C2.77067 4.57087 2.77067 4.13337 2.81734 3.78687C2.86634 3.42054 2.97484 3.08979 3.24025 2.82437C3.50625 2.55837 3.837 2.44987 4.20275 2.40087C4.54984 2.35421 4.98734 2.35421 5.51117 2.35421H8.4885C9.01292 2.35421 9.44984 2.35421 9.79634 2.40087C10.1627 2.44987 10.4934 2.55837 10.7588 2.82379C11.0248 3.08979 11.1333 3.42054 11.1823 3.78629C11.229 4.13337 11.229 4.57087 11.229 5.09471V5.56254C11.4236 5.56126 11.6182 5.56691 11.8123 5.57946C11.8106 4.68404 11.8007 4.01904 11.7307 3.49812C11.6519 2.91129 11.5038 2.57296 11.257 2.32562C11.0103 2.07946 10.6719 1.93129 10.0851 1.85254C9.486 1.77204 8.69559 1.77087 7.58317 1.77087H6.4165C5.30409 1.77087 4.51425 1.77204 3.914 1.85254C3.32775 1.93129 2.98942 2.07946 2.74267 2.32621C2.49592 2.57296 2.34775 2.91129 2.269 3.49812C2.199 4.01904 2.18909 4.68404 2.18734 5.57946ZM10.354 5.56254V5.12504C10.354 4.56271 10.3528 4.18471 10.3149 3.90296C10.2788 3.63404 10.2163 3.51854 10.1399 3.44271C10.0641 3.36687 9.94917 3.30446 9.68025 3.26771C9.3985 3.23037 9.0205 3.22921 8.45817 3.22921H7.43734V5.56254H10.354ZM6.56234 5.56254V3.22921H5.5415C4.97917 3.22921 4.60117 3.23037 4.31942 3.26829C4.0505 3.30446 3.935 3.36687 3.85917 3.44329C3.78334 3.51912 3.72092 3.63404 3.68417 3.90296C3.64684 4.18471 3.64567 4.56271 3.64567 5.12504V5.56254H6.56234ZM2.30809 6.44746C2.1675 6.45737 2.09925 6.47429 2.05434 6.49296C1.96579 6.5296 1.88533 6.58334 1.81757 6.65111C1.74981 6.71887 1.69607 6.79933 1.65942 6.88787C1.64075 6.93279 1.62384 7.00104 1.61392 7.14162C1.604 7.28571 1.604 7.47237 1.604 7.75004C1.604 8.02771 1.604 8.21437 1.61392 8.35846C1.62384 8.49904 1.64075 8.56729 1.65942 8.61221C1.7335 8.79129 1.87525 8.93304 2.05434 9.00712C2.09925 9.02579 2.1675 9.04271 2.30809 9.05262C2.45217 9.06254 2.63884 9.06254 2.9165 9.06254H11.0832C11.3608 9.06254 11.5475 9.06254 11.6916 9.05262C11.8322 9.04271 11.9004 9.02579 11.9453 9.00712C12.1244 8.93304 12.2662 8.79129 12.3403 8.61221C12.3589 8.56729 12.3758 8.49904 12.3858 8.35846C12.3957 8.21437 12.3957 8.02771 12.3957 7.75004C12.3957 7.47237 12.3957 7.28571 12.3858 7.14162C12.3758 7.00104 12.3589 6.93279 12.3403 6.88787C12.3036 6.79933 12.2499 6.71887 12.1821 6.65111C12.1143 6.58334 12.0339 6.5296 11.9453 6.49296C11.9004 6.47429 11.8322 6.45737 11.6916 6.44746C11.4889 6.43796 11.286 6.43465 11.0832 6.43754H2.9165C2.63884 6.43754 2.45217 6.43754 2.30809 6.44746Z" fill="#3FB6AF"/>
</svg>
