<svg width="10" height="8" viewBox="0 0 10 8" fill="none" xmlns="http://www.w3.org/2000/svg">
<path d="M6.95312 0.25C6.14648 0.25 5.44023 0.596875 5 1.1832C4.55977 0.596875 3.85352 0.25 3.04688 0.25C2.40478 0.250724 1.78918 0.506117 1.33515 0.96015C0.881117 1.41418 0.625724 2.02978 0.625 2.67188C0.625 5.40625 4.6793 7.61953 4.85195 7.71094C4.89746 7.73542 4.94833 7.74823 5 7.74823C5.05167 7.74823 5.10254 7.73542 5.14805 7.71094C5.3207 7.61953 9.375 5.40625 9.375 2.67188C9.37428 2.02978 9.11888 1.41418 8.66485 0.96015C8.21082 0.506117 7.59522 0.250724 6.95312 0.25ZM5 7.07813C4.28672 6.6625 1.25 4.76914 1.25 2.67188C1.25062 2.1955 1.44013 1.73882 1.77698 1.40198C2.11382 1.06513 2.5705 0.87562 3.04688 0.875C3.80664 0.875 4.44453 1.27969 4.71094 1.92969C4.73448 1.987 4.77453 2.03603 4.826 2.07053C4.87747 2.10503 4.93804 2.12345 5 2.12345C5.06196 2.12345 5.12253 2.10503 5.174 2.07053C5.22547 2.03603 5.26552 1.987 5.28906 1.92969C5.55547 1.27852 6.19336 0.875 6.95312 0.875C7.4295 0.87562 7.88618 1.06513 8.22302 1.40198C8.55987 1.73882 8.74938 2.1955 8.75 2.67188C8.75 4.76602 5.7125 6.66211 5 7.07813Z" fill="black"/>
</svg>
