<svg width="16" height="16" viewBox="0 0 16 16" fill="none" xmlns="http://www.w3.org/2000/svg">
<g clip-path="url(#clip0_47_1476)">
<path d="M1.71415 2.85713C1.41104 2.85713 1.12035 2.97753 0.906024 3.19186C0.691697 3.40619 0.571289 3.69688 0.571289 3.99998V14.2857C0.571289 14.5888 0.691697 14.8795 0.906024 15.0938C1.12035 15.3081 1.41104 15.4286 1.71415 15.4286H14.2856C14.5887 15.4286 14.8794 15.3081 15.0937 15.0938C15.308 14.8795 15.4284 14.5888 15.4284 14.2857V3.99998C15.4284 3.69688 15.308 3.40619 15.0937 3.19186C14.8794 2.97753 14.5887 2.85713 14.2856 2.85713H11.9999M3.99986 0.571411V5.14284M11.9999 0.571411V5.14284M3.99986 2.85713H9.71415M10.857 11.4286H5.14272M0.571289 7.42855H15.4284" stroke="#3F51B6" stroke-linecap="round" stroke-linejoin="round"/>
</g>
<defs>
<clipPath id="clip0_47_1476">
<rect width="16" height="16" fill="white"/>
</clipPath>
</defs>
</svg>
