<svg width="22" height="22" viewBox="0 0 22 22" fill="none" xmlns="http://www.w3.org/2000/svg">
<path d="M19.1667 11C19.1667 8.725 18.3741 6.79494 16.789 5.20983C15.2039 3.62472 13.2742 2.83256 11 2.83333V0.5C12.4583 0.5 13.8245 0.777278 15.0985 1.33183C16.3725 1.88639 17.4808 2.63461 18.4235 3.5765C19.3662 4.51994 20.1148 5.62828 20.6693 6.9015C21.2239 8.17472 21.5008 9.54089 21.5 11H19.1667ZM14.5 11C14.5 10.0278 14.1597 9.20139 13.4792 8.52083C12.7986 7.84028 11.9722 7.5 11 7.5V5.16667C12.6139 5.16667 13.9898 5.73561 15.1277 6.8735C16.2656 8.01139 16.8341 9.38689 16.8333 11H14.5ZM20.275 21.5C17.7667 21.5 15.3213 20.9408 12.939 19.8223C10.5567 18.7039 8.44695 17.2261 6.60983 15.389C4.77272 13.5519 3.29495 11.4422 2.1765 9.05983C1.05806 6.6775 0.499223 4.23256 0.500001 1.725C0.500001 1.375 0.616667 1.08333 0.850001 0.85C1.08333 0.616667 1.375 0.5 1.725 0.5H6.45C6.72222 0.5 6.96528 0.5875 7.17917 0.7625C7.39306 0.9375 7.51944 1.16111 7.55833 1.43333L8.31667 5.51667C8.35556 5.78889 8.3505 6.037 8.3015 6.261C8.2525 6.485 8.14089 6.68411 7.96667 6.85833L5.1375 9.71667C5.95417 11.1167 6.98006 12.4292 8.21517 13.6542C9.45028 14.8792 10.8063 15.9389 12.2833 16.8333L15.025 14.0917C15.2 13.9167 15.4287 13.7852 15.711 13.6973C15.9933 13.6094 16.2702 13.5853 16.5417 13.625L20.5667 14.4417C20.8389 14.5 21.0625 14.6314 21.2375 14.836C21.4125 15.0406 21.5 15.2786 21.5 15.55V20.275C21.5 20.625 21.3833 20.9167 21.15 21.15C20.9167 21.3833 20.625 21.5 20.275 21.5ZM4.02917 7.5L5.95417 5.575L5.45833 2.83333H2.8625C2.95972 3.63056 3.09583 4.41806 3.27083 5.19583C3.44583 5.97361 3.69861 6.74167 4.02917 7.5ZM14.4708 17.9417C15.2292 18.2722 16.0023 18.5347 16.7902 18.7292C17.5781 18.9236 18.3702 19.05 19.1667 19.1083V16.5417L16.425 15.9875L14.4708 17.9417Z" fill="#707084"/>
</svg>
