<svg width="24" height="24" viewBox="0 0 24 24" fill="none" xmlns="http://www.w3.org/2000/svg">
<path d="M7.3335 12H13.196C13.5266 12 13.7988 11.888 14.0127 11.664C14.2266 11.44 14.3335 11.1631 14.3335 10.8333C14.3335 10.5028 14.2215 10.2255 13.9975 10.0015C13.7735 9.77748 13.4966 9.66587 13.1668 9.66665H7.30433C6.97377 9.66665 6.70155 9.77865 6.48766 10.0026C6.27377 10.2266 6.16683 10.5035 6.16683 10.8333C6.16683 11.1639 6.27883 11.4411 6.50283 11.6651C6.72683 11.8891 7.00372 12.0008 7.3335 12ZM7.3335 8.49998H13.196C13.5266 8.49998 13.7988 8.38798 14.0127 8.16398C14.2266 7.93998 14.3335 7.66309 14.3335 7.33331C14.3335 7.00276 14.2215 6.72548 13.9975 6.50148C13.7735 6.27748 13.4966 6.16587 13.1668 6.16665H7.30433C6.97377 6.16665 6.70155 6.27865 6.48766 6.50265C6.27377 6.72665 6.16683 7.00353 6.16683 7.33331C6.16683 7.66387 6.27883 7.94115 6.50283 8.16515C6.72683 8.38915 7.00372 8.50076 7.3335 8.49998ZM7.3335 15.5H8.52933C8.85988 15.5 9.13211 15.388 9.346 15.164C9.55989 14.94 9.66683 14.6631 9.66683 14.3333C9.66683 14.0028 9.55483 13.7255 9.33083 13.5015C9.10683 13.2775 8.82994 13.1659 8.50016 13.1666H7.30433C6.97377 13.1666 6.70155 13.2786 6.48766 13.5026C6.27377 13.7266 6.16683 14.0035 6.16683 14.3333C6.16683 14.6639 6.27883 14.9411 6.50283 15.1651C6.72683 15.3891 7.00372 15.5008 7.3335 15.5ZM12.0002 23.6666C10.3863 23.6666 8.86961 23.3602 7.45016 22.7473C6.03072 22.1344 4.796 21.3034 3.746 20.2541C2.696 19.2041 1.86494 17.9694 1.25283 16.55C0.640718 15.1305 0.334274 13.6139 0.333496 12C0.333496 10.3861 0.639941 8.86942 1.25283 7.44998C1.86572 6.03054 2.69677 4.79581 3.746 3.74581C4.796 2.69581 6.03072 1.86476 7.45016 1.25265C8.86961 0.640535 10.3863 0.334091 12.0002 0.333313C13.6141 0.333313 15.1307 0.639758 16.5502 1.25265C17.9696 1.86554 19.2043 2.69659 20.2543 3.74581C21.3043 4.79581 22.1358 6.03054 22.7487 7.44998C23.3615 8.86942 23.6676 10.3861 23.6668 12C23.6668 13.6139 23.3604 15.1305 22.7475 16.55C22.1346 17.9694 21.3036 19.2041 20.2543 20.2541C19.2043 21.3041 17.9696 22.1356 16.5502 22.7485C15.1307 23.3614 13.6141 23.6674 12.0002 23.6666ZM12.0002 21.3333C14.5863 21.3333 16.7886 20.4245 18.607 18.6068C20.4254 16.7891 21.3343 14.5869 21.3335 12C21.3335 9.41387 20.4247 7.21159 18.607 5.39315C16.7893 3.5747 14.5871 2.66587 12.0002 2.66665C9.41405 2.66665 7.21177 3.57548 5.39333 5.39315C3.57488 7.21081 2.66605 9.41309 2.66683 12C2.66683 14.5861 3.57566 16.7884 5.39333 18.6068C7.211 20.4253 9.41327 21.3341 12.0002 21.3333ZM14.3918 16.1416L13.5752 15.325C13.3418 15.0916 13.0649 14.9703 12.7445 14.961C12.4241 14.9516 12.1468 15.0633 11.9127 15.2958C11.6793 15.5291 11.5627 15.8064 11.5627 16.1276C11.5627 16.4489 11.6793 16.7258 11.9127 16.9583L13.5752 18.6208C13.8085 18.8541 14.0807 18.9708 14.3918 18.9708C14.7029 18.9708 14.9752 18.8541 15.2085 18.6208L19.3793 14.45C19.6127 14.2166 19.7247 13.9444 19.7153 13.6333C19.706 13.3222 19.5843 13.05 19.3502 12.8166C19.1168 12.6028 18.8446 12.4911 18.5335 12.4818C18.2224 12.4725 17.9502 12.5841 17.7168 12.8166L14.3918 16.1416Z" fill="#707084"/>
</svg>
