<svg width="16" height="16" viewBox="0 0 16 16" fill="none" xmlns="http://www.w3.org/2000/svg">
<g clip-path="url(#clip0_47_2052)">
<path d="M1.71439 2.85713C1.41129 2.85713 1.1206 2.97753 0.906268 3.19186C0.691941 3.40619 0.571533 3.69688 0.571533 3.99998V14.2857C0.571533 14.5888 0.691941 14.8795 0.906268 15.0938C1.1206 15.3081 1.41129 15.4286 1.71439 15.4286H14.2858C14.5889 15.4286 14.8796 15.3081 15.0939 15.0938C15.3083 14.8795 15.4287 14.5888 15.4287 14.2857V3.99998C15.4287 3.69688 15.3083 3.40619 15.0939 3.19186C14.8796 2.97753 14.5889 2.85713 14.2858 2.85713H12.0001M4.0001 0.571411V5.14284M12.0001 0.571411V5.14284M4.0001 2.85713H9.71439M10.8572 11.4286H5.14296M0.571533 7.42855H15.4287" stroke="#3F51B6" stroke-linecap="round" stroke-linejoin="round"/>
</g>
<defs>
<clipPath id="clip0_47_2052">
<rect width="16" height="16" fill="white"/>
</clipPath>
</defs>
</svg>
