<svg width="26" height="26" viewBox="0 0 26 26" fill="none" xmlns="http://www.w3.org/2000/svg">
<path d="M22.75 22.75V7.3125L15.4375 0H6.5C5.63805 0 4.8114 0.34241 4.2019 0.951903C3.59241 1.5614 3.25 2.38805 3.25 3.25V22.75C3.25 23.612 3.59241 24.4386 4.2019 25.0481C4.8114 25.6576 5.63805 26 6.5 26H19.5C20.362 26 21.1886 25.6576 21.7981 25.0481C22.4076 24.4386 22.75 23.612 22.75 22.75ZM15.4375 4.875C15.4375 5.52147 15.6943 6.14145 16.1514 6.59857C16.6085 7.05569 17.2285 7.3125 17.875 7.3125H21.125V14.625H4.875V3.25C4.875 2.81902 5.0462 2.4057 5.35095 2.10095C5.6557 1.7962 6.06902 1.625 6.5 1.625H15.4375V4.875ZM4.875 19.5V16.25H8.125V19.5H4.875ZM4.875 21.125H8.125V24.375H6.5C6.06902 24.375 5.6557 24.2038 5.35095 23.899C5.0462 23.5943 4.875 23.181 4.875 22.75V21.125ZM9.75 24.375V21.125H14.625V24.375H9.75ZM16.25 24.375V21.125H21.125V22.75C21.125 23.181 20.9538 23.5943 20.649 23.899C20.3443 24.2038 19.931 24.375 19.5 24.375H16.25ZM21.125 19.5H16.25V16.25H21.125V19.5ZM9.75 19.5V16.25H14.625V19.5H9.75Z" fill="#707084"/>
</svg>
