<svg width="144" height="133" viewBox="0 0 144 133" fill="none" xmlns="http://www.w3.org/2000/svg">
<circle cx="71.9999" cy="69.7959" r="50.4286" stroke="#F5F5F5" stroke-width="2"/>
<circle cx="16.5304" cy="20.9387" r="2.57143" fill="#534EBE"/>
<circle cx="38.5714" cy="130.408" r="2.57143" fill="#534EBE"/>
<circle cx="15.061" cy="70.8979" r="1.10204" fill="#85BB72"/>
<circle cx="133.347" cy="2.57143" r="2.57143" fill="#00E640"/>
<circle cx="112.041" cy="113.51" r="2.57143" fill="#00E640"/>
<circle cx="107.265" cy="16.898" r="1.46939" fill="url(#paint0_linear_761_1152)"/>
<circle cx="85.9596" cy="127.837" r="1.46939" fill="url(#paint1_linear_761_1152)"/>
<circle cx="120.858" cy="36.3673" r="2.57143" fill="#F59D31"/>
<circle cx="141.429" cy="95.8776" r="2.57143" fill="#F59D31"/>
<circle cx="68.6942" cy="6.97956" r="1.83673" fill="#58E6FD"/>
<circle cx="16.5311" cy="98.8163" r="1.83673" fill="#58E6FD"/>
<circle cx="1.83673" cy="51.0612" r="1.83673" fill="#0B735F"/>
<path fill-rule="evenodd" clip-rule="evenodd" d="M68.8213 49.2572C67.9163 49.3888 67.0463 49.6981 66.2614 50.1674C65.4764 50.6366 64.792 51.2565 64.2477 51.9914C63.7033 52.7263 63.3097 53.5616 63.0896 54.4492C62.8694 55.3368 62.827 56.2593 62.9648 57.1633L63.0298 57.6032C63.1165 58.1513 63.2595 58.6865 63.461 59.2022L65.4435 64.2765C70.187 63.9543 74.9478 63.9826 79.6872 64.361L82.9285 64.621C83.9475 64.7025 84.9098 65.123 85.6619 65.8153C86.414 66.5077 86.9124 67.4321 87.0777 68.4408C87.8612 73.2262 87.8612 78.1071 87.0777 82.8925C86.9129 83.9017 86.4146 84.8266 85.6625 85.5194C84.9104 86.2122 83.9478 86.6329 82.9285 86.7145L79.6872 86.9745C74.569 87.383 69.4264 87.383 64.3082 86.9745L61.0668 86.7145C60.0475 86.6329 59.085 86.2122 58.3329 85.5194C57.5808 84.8266 57.0825 83.9017 56.9177 82.8925C56.1342 78.1071 56.1342 73.2262 56.9177 68.4408C57.0822 67.4309 57.5805 66.5053 58.3331 65.8121C59.0857 65.1188 60.049 64.6979 61.069 64.6167L62.0592 64.5387L60.4342 60.383C60.1468 59.6452 59.9419 58.8779 59.8232 58.095L59.756 57.653C59.3791 55.1757 59.9288 52.6465 61.3 50.5491C62.6711 48.4517 64.7674 46.9335 67.1878 46.285C69.6082 45.6364 72.1828 45.9031 74.4189 47.0338C76.6551 48.1646 78.3958 50.0802 79.308 52.414L79.4705 52.8322C79.7587 53.5688 79.9645 54.338 80.0837 55.1223L80.3892 57.133C80.4107 57.2737 80.4043 57.4173 80.3704 57.5555C80.3364 57.6938 80.2755 57.824 80.1912 57.9387C80.1069 58.0533 80.0008 58.1503 79.879 58.224C79.7572 58.2976 79.6221 58.3466 79.4813 58.368L78.411 58.5305C78.2703 58.5521 78.1267 58.5457 77.9885 58.5117C77.8503 58.4777 77.7201 58.4169 77.6054 58.3325C77.4907 58.2482 77.3937 58.1421 77.3201 58.0203C77.2464 57.8985 77.1974 57.7634 77.176 57.6227L76.8727 55.612C76.7892 55.0648 76.6453 54.5285 76.4437 54.013L76.2812 53.597C75.711 52.1378 74.6635 50.9146 73.3092 50.1269C71.9549 49.3392 70.3738 49.0334 68.8235 49.2593L68.8213 49.2572ZM71.9998 72.4167C71.1379 72.4167 70.3112 72.7591 69.7018 73.3686C69.0923 73.9781 68.7498 74.8047 68.7498 75.6667C68.7498 76.5286 69.0923 77.3553 69.7018 77.9648C70.3112 78.5743 71.1379 78.9167 71.9998 78.9167C72.8618 78.9167 73.6885 78.5743 74.2979 77.9648C74.9074 77.3553 75.2498 76.5286 75.2498 75.6667C75.2498 74.8047 74.9074 73.9781 74.2979 73.3686C73.6885 72.7591 72.8618 72.4167 71.9998 72.4167Z" fill="#3F51B6"/>
<defs>
<linearGradient id="paint0_linear_761_1152" x1="107.028" y1="14.547" x2="108.991" y2="15.2125" gradientUnits="userSpaceOnUse">
<stop stop-color="#F9881F"/>
<stop offset="1" stop-color="#FF774C"/>
</linearGradient>
<linearGradient id="paint1_linear_761_1152" x1="85.7228" y1="125.486" x2="87.6857" y2="126.151" gradientUnits="userSpaceOnUse">
<stop stop-color="#F9881F"/>
<stop offset="1" stop-color="#FF774C"/>
</linearGradient>
</defs>
</svg>
