<svg width="144" height="133" viewBox="0 0 144 133" fill="none" xmlns="http://www.w3.org/2000/svg">
<circle cx="72.4286" cy="69.4286" r="50.4286" stroke="#F5F5F5" stroke-width="2"/>
<circle cx="16.5304" cy="20.9387" r="2.57143" fill="#534EBE"/>
<circle cx="38.5714" cy="130.408" r="2.57143" fill="#534EBE"/>
<circle cx="15.061" cy="70.8979" r="1.10204" fill="#85BB72"/>
<circle cx="133.347" cy="2.57143" r="2.57143" fill="#00E640"/>
<circle cx="112.041" cy="113.51" r="2.57143" fill="#00E640"/>
<circle cx="107.265" cy="16.898" r="1.46939" fill="url(#paint0_linear_762_1153)"/>
<circle cx="85.9596" cy="127.837" r="1.46939" fill="url(#paint1_linear_762_1153)"/>
<circle cx="120.858" cy="36.3673" r="2.57143" fill="#F59D31"/>
<circle cx="141.429" cy="95.8776" r="2.57143" fill="#F59D31"/>
<circle cx="68.6942" cy="6.97956" r="1.83673" fill="#58E6FD"/>
<circle cx="16.5311" cy="98.8163" r="1.83673" fill="#58E6FD"/>
<circle cx="1.83673" cy="51.0612" r="1.83673" fill="#0B735F"/>
<path d="M77.2713 78.625C79.7783 78.625 80.7558 79.7424 81.4975 82.2188L81.6279 82.673C81.9786 83.9322 82.1875 84.3098 82.6111 84.4842C83.1075 84.6893 83.4372 84.6606 83.9585 84.3923L84.2403 84.2351C84.3419 84.1737 84.4511 84.1028 84.5776 84.0204L85.8484 83.156C87.029 82.3797 88.0909 81.8661 89.3808 81.5441C89.7484 81.4578 90.1352 81.5196 90.4576 81.7162C90.78 81.9128 91.0121 82.2284 91.1038 82.5947C91.1954 82.961 91.1392 83.3487 90.9474 83.6739C90.7555 83.9992 90.4434 84.2359 90.0784 84.3328C89.302 84.5301 88.561 84.8469 87.8819 85.272L87.3108 85.6362L86.3908 86.2648C86.033 86.5161 85.6598 86.7446 85.2734 86.9491C84.0409 87.5816 82.8392 87.6889 81.5167 87.1408C80.0869 86.5543 79.5119 85.6477 78.9733 83.8441L78.6743 82.8033C78.3274 81.6744 78.0897 81.5 77.2713 81.5C76.6771 81.5 76.0638 81.7971 75.2224 82.5024L74.8697 82.811L73.1044 84.4881C70.4058 87.0257 68.1039 88.2582 64.8091 88.2582C61.5776 88.2582 58.7831 87.7713 56.4371 86.7842L62.0855 85.2432C62.9423 85.3352 63.8508 85.3832 64.8091 85.3832C67.0765 85.3832 68.7038 84.5877 70.7259 82.7707L71.2204 82.3127L72.24 81.3352C72.6924 80.9001 73.0335 80.5877 73.3747 80.3002C74.6857 79.2019 75.8759 78.625 77.2713 78.625ZM85.4746 52.6925C86.7602 53.9788 87.4824 55.723 87.4824 57.5417C87.4824 59.3603 86.7602 61.1045 85.4746 62.3908L84.9226 62.9467C87.1287 65.63 87.0501 68.4782 84.9974 70.5367L81.1621 74.37C80.8922 74.6394 80.5263 74.7906 80.1449 74.7902C79.7635 74.7899 79.3979 74.638 79.1285 74.3681C78.8591 74.0982 78.708 73.7323 78.7083 73.3509C78.7087 72.9695 78.8605 72.6039 79.1304 72.3345L82.9619 68.505C83.8914 67.5716 83.9969 66.4158 82.8852 64.9803L66.3693 81.5C65.8381 82.0312 65.1774 82.4144 64.4526 82.6117L54.6489 85.2854C54.4045 85.3517 54.1469 85.3523 53.9022 85.2871C53.6575 85.2218 53.4344 85.0931 53.2554 84.914C53.0765 84.7348 52.948 84.5116 52.8831 84.2668C52.8181 84.0221 52.819 83.7645 52.8855 83.5202L55.5574 73.7145C55.755 72.9904 56.1381 72.3304 56.669 71.7998L75.7763 52.6925C76.4131 52.0554 77.1692 51.55 78.0014 51.2052C78.8336 50.8605 79.7256 50.683 80.6264 50.683C81.5272 50.683 82.4192 50.8605 83.2514 51.2052C84.0836 51.55 84.8378 52.0554 85.4746 52.6925ZM77.8079 54.7242L58.7026 73.8333C58.5259 74.0103 58.3984 74.2303 58.3327 74.4716L56.3202 81.8507L63.6994 79.8382C63.9397 79.7709 64.1583 79.642 64.3338 79.4645L83.4429 60.3592C83.8129 59.9892 84.1064 59.5499 84.3067 59.0665C84.5069 58.5831 84.61 58.0649 84.61 57.5417C84.61 57.0184 84.5069 56.5003 84.3067 56.0168C84.1064 55.5334 83.8129 55.0942 83.4429 54.7242C83.0729 54.3542 82.6337 54.0607 82.1503 53.8604C81.6668 53.6602 81.1487 53.5571 80.6254 53.5571C80.1022 53.5571 79.584 53.6602 79.1006 53.8604C78.6172 54.0607 78.1779 54.3542 77.8079 54.7242Z" fill="#3F51B6"/>
<defs>
<linearGradient id="paint0_linear_762_1153" x1="107.028" y1="14.547" x2="108.991" y2="15.2125" gradientUnits="userSpaceOnUse">
<stop stop-color="#F9881F"/>
<stop offset="1" stop-color="#FF774C"/>
</linearGradient>
<linearGradient id="paint1_linear_762_1153" x1="85.7228" y1="125.486" x2="87.6857" y2="126.151" gradientUnits="userSpaceOnUse">
<stop stop-color="#F9881F"/>
<stop offset="1" stop-color="#FF774C"/>
</linearGradient>
</defs>
</svg>
