<svg width="14" height="14" viewBox="0 0 14 14" fill="none" xmlns="http://www.w3.org/2000/svg">
<path d="M12.25 10.0625L11.6375 10.675L10.5 9.5375V13.125H9.625V9.5375L8.4875 10.675L7.875 10.0625L10.0625 7.875L12.25 10.0625Z" fill="#B43FB6"/>
<path d="M6.7375 13.125L2.1875 10.4125C1.925 10.2375 1.75 9.975 1.75 9.66875V4.33125C1.75 4.025 1.925 3.71875 2.1875 3.5875L6.5625 1.00625C6.69375 0.91875 6.825 0.875 7 0.875C7.175 0.875 7.30625 0.91875 7.4375 1.00625L11.8125 3.5875C12.075 3.7625 12.25 4.025 12.25 4.33125V7H11.375V4.33125L7 1.75L2.625 4.33125V9.66875L7.21875 12.3812L6.7375 13.125Z" fill="#B43FB6"/>
</svg>
