<svg width="24" height="24" viewBox="0 0 24 24" fill="none" xmlns="http://www.w3.org/2000/svg">
<path d="M12.0002 0.333374C10.4681 0.333374 8.95099 0.635141 7.53552 1.22145C6.12006 1.80775 4.83393 2.66711 3.75058 3.75046C1.56266 5.93839 0.333496 8.90585 0.333496 12C0.333496 15.0942 1.56266 18.0617 3.75058 20.2496C4.83393 21.333 6.12006 22.1923 7.53552 22.7786C8.95099 23.3649 10.4681 23.6667 12.0002 23.6667C15.0944 23.6667 18.0618 22.4375 20.2497 20.2496C22.4377 18.0617 23.6668 15.0942 23.6668 12C23.6668 10.468 23.3651 8.95086 22.7788 7.5354C22.1925 6.11994 21.3331 4.83381 20.2497 3.75046C19.1664 2.66711 17.8803 1.80775 16.4648 1.22145C15.0493 0.635141 13.5323 0.333374 12.0002 0.333374ZM6.2485 19.3267C6.75016 18.2767 9.80683 17.25 12.0002 17.25C14.1935 17.25 17.2502 18.2767 17.7518 19.3267C16.1178 20.6287 14.0895 21.3364 12.0002 21.3334C9.83016 21.3334 7.83516 20.5867 6.2485 19.3267ZM19.4202 17.635C17.7518 15.605 13.7035 14.9167 12.0002 14.9167C10.2968 14.9167 6.2485 15.605 4.58016 17.635C3.33905 16.0188 2.66644 14.0379 2.66683 12C2.66683 6.85504 6.85516 2.66671 12.0002 2.66671C17.1452 2.66671 21.3335 6.85504 21.3335 12C21.3335 14.1234 20.6102 16.0834 19.4202 17.635ZM12.0002 5.00004C9.73683 5.00004 7.91683 6.82004 7.91683 9.08337C7.91683 11.3467 9.73683 13.1667 12.0002 13.1667C14.2635 13.1667 16.0835 11.3467 16.0835 9.08337C16.0835 6.82004 14.2635 5.00004 12.0002 5.00004ZM12.0002 10.8334C11.536 10.8334 11.0909 10.649 10.7627 10.3208C10.4345 9.99262 10.2502 9.5475 10.2502 9.08337C10.2502 8.61924 10.4345 8.17413 10.7627 7.84594C11.0909 7.51775 11.536 7.33337 12.0002 7.33337C12.4643 7.33337 12.9094 7.51775 13.2376 7.84594C13.5658 8.17413 13.7502 8.61924 13.7502 9.08337C13.7502 9.5475 13.5658 9.99262 13.2376 10.3208C12.9094 10.649 12.4643 10.8334 12.0002 10.8334Z" fill="#707084"/>
</svg>
