<svg width="12" height="12" viewBox="0 0 12 12" fill="none" xmlns="http://www.w3.org/2000/svg">
<path d="M10.125 4.21875H7.78125V1.875C7.78125 1.80041 7.75162 1.72887 7.69887 1.67613C7.64613 1.62338 7.57459 1.59375 7.5 1.59375H1.875C1.80041 1.59375 1.72887 1.62338 1.67613 1.67613C1.62338 1.72887 1.59375 1.80041 1.59375 1.875V7.5C1.59375 7.57459 1.62338 7.64613 1.67613 7.69887C1.72887 7.75162 1.80041 7.78125 1.875 7.78125H4.21875V10.125C4.21875 10.1996 4.24838 10.2711 4.30113 10.3239C4.35387 10.3766 4.42541 10.4062 4.5 10.4062H10.125C10.1996 10.4062 10.2711 10.3766 10.3239 10.3239C10.3766 10.2711 10.4062 10.1996 10.4062 10.125V4.5C10.4062 4.42541 10.3766 4.35387 10.3239 4.30113C10.2711 4.24838 10.1996 4.21875 10.125 4.21875ZM2.15625 7.21875V2.15625H7.21875V4.21875H4.5C4.42541 4.21875 4.35387 4.24838 4.30113 4.30113C4.24838 4.35387 4.21875 4.42541 4.21875 4.5V7.21875H2.15625ZM4.78125 5.17875L6.82125 7.21875H4.78125V5.17875ZM7.21875 6.81938L5.17875 4.78125H7.21875V6.81938ZM9.84375 9.84375H4.78125V7.78125H7.5C7.57459 7.78125 7.64613 7.75162 7.69887 7.69887C7.75162 7.64613 7.78125 7.57459 7.78125 7.5V4.78125H9.84375V9.84375Z" fill="#B66A3F"/>
</svg>
