<svg width="10" height="10" viewBox="0 0 10 10" fill="none" xmlns="http://www.w3.org/2000/svg">
<g clip-path="url(#clip0_45_588)">
<path d="M8.21408 0.357178H8.92836C9.1178 0.357178 9.29948 0.432433 9.43344 0.566387C9.56739 0.700342 9.64265 0.882023 9.64265 1.07146V1.78575M0.356934 1.78575V1.07146C0.356934 0.882023 0.432188 0.700342 0.566143 0.566387C0.700098 0.432433 0.881779 0.357178 1.07122 0.357178H1.78551M3.92836 0.357178H6.07122M9.64265 3.92861V6.07146M0.356934 3.92861V6.07146M8.21408 9.64289H8.92836C9.1178 9.64289 9.29948 9.56764 9.43344 9.43368C9.56739 9.29973 9.64265 9.11805 9.64265 8.92861V8.21432M0.356934 8.21432V8.92861C0.356934 9.11805 0.432188 9.29973 0.566143 9.43368C0.700098 9.56764 0.881779 9.64289 1.07122 9.64289H1.78551M3.92836 9.64289H6.07122" stroke="#B63F4D" stroke-linecap="round" stroke-linejoin="round"/>
<path d="M6.42836 2.85718H3.57122C3.17673 2.85718 2.85693 3.17697 2.85693 3.57146V6.42861C2.85693 6.8231 3.17673 7.14289 3.57122 7.14289H6.42836C6.82285 7.14289 7.14265 6.8231 7.14265 6.42861V3.57146C7.14265 3.17697 6.82285 2.85718 6.42836 2.85718Z" stroke="#B63F4D" stroke-linecap="round" stroke-linejoin="round"/>
</g>
<defs>
<clipPath id="clip0_45_588">
<rect width="10" height="10" fill="white"/>
</clipPath>
</defs>
</svg>
