<svg width="10" height="10" viewBox="0 0 10 10" fill="none" xmlns="http://www.w3.org/2000/svg">
<path d="M3.125 5.90891C3.19959 5.90891 3.27113 5.87927 3.32387 5.82653C3.37662 5.77379 3.40625 5.70225 3.40625 5.62766V4.90625H6.59375V5.71672C6.59375 5.79131 6.62338 5.86285 6.67613 5.91559C6.72887 5.96834 6.80041 5.99797 6.875 5.99797C6.94959 5.99797 7.02113 5.96834 7.07387 5.91559C7.12662 5.86285 7.15625 5.79131 7.15625 5.71672V0.5C7.15625 0.425408 7.12662 0.353871 7.07387 0.301126C7.02113 0.248382 6.94959 0.21875 6.875 0.21875C6.80041 0.21875 6.72887 0.248382 6.67613 0.301126C6.62338 0.353871 6.59375 0.425408 6.59375 0.5V1.34375H3.40625V0.5C3.40625 0.425408 3.37662 0.353871 3.32387 0.301126C3.27113 0.248382 3.19959 0.21875 3.125 0.21875C3.05041 0.21875 2.97887 0.248382 2.92613 0.301126C2.87338 0.353871 2.84375 0.425408 2.84375 0.5V5.62766C2.84375 5.70225 2.87338 5.77379 2.92613 5.82653C2.97887 5.87927 3.05041 5.90891 3.125 5.90891ZM3.40625 4.34375V3.40625H6.59375V4.34375H3.40625ZM6.59375 1.90625V2.84375H3.40625V1.90625H6.59375ZM0.21875 6.875C0.21875 6.80041 0.248382 6.72887 0.301126 6.67613C0.353871 6.62338 0.425408 6.59375 0.5 6.59375C1.14781 6.59375 1.48438 6.81828 1.78109 7.01562C2.045 7.19141 2.27234 7.34375 2.75 7.34375C3.22766 7.34375 3.45312 7.19187 3.71891 7.01562C4.01562 6.81781 4.35219 6.59375 4.99953 6.59375C5.64687 6.59375 5.98391 6.81828 6.28063 7.01562C6.54453 7.19141 6.77234 7.34375 7.25 7.34375C7.72766 7.34375 7.95312 7.19187 8.21891 7.01562C8.51562 6.81781 8.85219 6.59375 9.5 6.59375C9.57459 6.59375 9.64613 6.62338 9.69887 6.67613C9.75162 6.72887 9.78125 6.80041 9.78125 6.875C9.78125 6.94959 9.75162 7.02113 9.69887 7.07387C9.64613 7.12662 9.57459 7.15625 9.5 7.15625C9.02281 7.15625 8.79688 7.30813 8.53109 7.48438C8.23391 7.68219 7.89734 7.90625 7.25 7.90625C6.60266 7.90625 6.26562 7.68172 5.96891 7.48438C5.705 7.30859 5.47719 7.15625 4.99953 7.15625C4.52187 7.15625 4.29641 7.30813 4.03062 7.48438C3.73391 7.68219 3.39734 7.90625 2.75 7.90625C2.10266 7.90625 1.76562 7.68172 1.46891 7.48438C1.20312 7.30813 0.977188 7.15625 0.5 7.15625C0.425408 7.15625 0.353871 7.12662 0.301126 7.07387C0.248382 7.02113 0.21875 6.94959 0.21875 6.875ZM9.78125 8.75C9.78125 8.82459 9.75162 8.89613 9.69887 8.94887C9.64613 9.00162 9.57459 9.03125 9.5 9.03125C9.02281 9.03125 8.79688 9.18312 8.53109 9.35938C8.23391 9.55719 7.89734 9.78125 7.25 9.78125C6.60266 9.78125 6.26562 9.55672 5.96891 9.35938C5.705 9.18359 5.47719 9.03125 4.99953 9.03125C4.52187 9.03125 4.29641 9.18312 4.03062 9.35938C3.73391 9.55719 3.39734 9.78125 2.75 9.78125C2.10266 9.78125 1.76562 9.55672 1.46891 9.35938C1.20312 9.18312 0.977188 9.03125 0.5 9.03125C0.425408 9.03125 0.353871 9.00162 0.301126 8.94887C0.248382 8.89613 0.21875 8.82459 0.21875 8.75C0.21875 8.67541 0.248382 8.60387 0.301126 8.55113C0.353871 8.49838 0.425408 8.46875 0.5 8.46875C1.14781 8.46875 1.48438 8.69328 1.78109 8.89062C2.045 9.06641 2.27234 9.21875 2.75 9.21875C3.22766 9.21875 3.45312 9.06688 3.71891 8.89062C4.01562 8.69281 4.35219 8.46875 4.99953 8.46875C5.64687 8.46875 5.98391 8.69328 6.28063 8.89062C6.54453 9.06641 6.77234 9.21875 7.25 9.21875C7.72766 9.21875 7.95312 9.06688 8.21891 8.89062C8.51562 8.69281 8.85219 8.46875 9.5 8.46875C9.57459 8.46875 9.64613 8.49838 9.69887 8.55113C9.75162 8.60387 9.78125 8.67541 9.78125 8.75Z" fill="#B6AA3F"/>
</svg>
