<svg width="12" height="12" viewBox="0 0 12 12" fill="none" xmlns="http://www.w3.org/2000/svg">
<path d="M3.45 6.51667H3.06667C3.06667 6.61833 3.10705 6.71584 3.17894 6.78772C3.25083 6.85961 3.34833 6.9 3.45 6.9V6.51667ZM6.51667 6.51667V6.9C6.61833 6.9 6.71584 6.85961 6.78772 6.78772C6.85961 6.71584 6.9 6.61833 6.9 6.51667H6.51667ZM6.51667 4.6H6.9C6.90009 4.54963 6.89025 4.49973 6.87104 4.45316C6.85184 4.40659 6.82364 4.36426 6.78807 4.3286L6.51667 4.6ZM4.98333 3.06667L5.25473 2.79527C5.21912 2.75957 5.17682 2.73125 5.13025 2.71192C5.08368 2.6926 5.03375 2.68265 4.98333 2.68265C4.93291 2.68265 4.88299 2.6926 4.83641 2.71192C4.78984 2.73125 4.74754 2.75957 4.71193 2.79527L4.98333 3.06667ZM3.45 4.6L3.1786 4.3286C3.14303 4.36426 3.11483 4.40659 3.09562 4.45316C3.07642 4.49973 3.06658 4.54963 3.06667 4.6H3.45ZM11.3881 10.8453L8.3214 7.7786L7.7786 8.3214L10.8453 11.3881L11.3881 10.8453ZM4.98333 9.2C3.865 9.2 2.79248 8.75574 2.0017 7.96497C1.21092 7.17419 0.766667 6.10166 0.766667 4.98333H0C0 6.305 0.525028 7.57253 1.45958 8.50708C2.39414 9.44164 3.66167 9.96667 4.98333 9.96667V9.2ZM9.2 4.98333C9.2 6.10166 8.75574 7.17419 7.96497 7.96497C7.17419 8.75574 6.10166 9.2 4.98333 9.2V9.96667C6.305 9.96667 7.57253 9.44164 8.50708 8.50708C9.44164 7.57253 9.96667 6.305 9.96667 4.98333H9.2ZM4.98333 0.766667C6.10166 0.766667 7.17419 1.21092 7.96497 2.0017C8.75574 2.79248 9.2 3.865 9.2 4.98333H9.96667C9.96667 3.66167 9.44164 2.39414 8.50708 1.45958C7.57253 0.525028 6.305 0 4.98333 0V0.766667ZM4.98333 0C3.66167 0 2.39414 0.525028 1.45958 1.45958C0.525028 2.39414 0 3.66167 0 4.98333H0.766667C0.766667 3.865 1.21092 2.79248 2.0017 2.0017C2.79248 1.21092 3.865 0.766667 4.98333 0.766667V0ZM3.45 6.9H6.51667V6.13333H3.45V6.9ZM6.9 6.51667V4.6H6.13333V6.51667H6.9ZM6.78807 4.3286L5.25473 2.79527L4.71193 3.33807L6.24527 4.8714L6.78807 4.3286ZM4.71193 2.79527L3.1786 4.3286L3.7214 4.8714L5.25473 3.33807L4.71193 2.79527ZM3.06667 4.6V6.51667H3.83333V4.6H3.06667Z" fill="#ACB63F"/>
</svg>
