<svg width="21" height="28" viewBox="0 0 21 28" fill="none" xmlns="http://www.w3.org/2000/svg">
<path fill-rule="evenodd" clip-rule="evenodd" d="M8.41419 2.77211C7.82028 2.8578 7.24932 3.05923 6.7342 3.36479C6.21907 3.67036 5.76996 4.07402 5.41272 4.55255C5.05549 5.03107 4.79719 5.57498 4.65271 6.15298C4.50823 6.73097 4.48041 7.33161 4.57087 7.92031L4.61352 8.20672C4.6704 8.56366 4.76424 8.91214 4.89648 9.24793L6.19749 12.5521C9.31042 12.3424 12.4347 12.3607 15.5449 12.6072L17.672 12.7765C18.3407 12.8295 18.9723 13.1033 19.4658 13.5542C19.9594 14.005 20.2865 14.6069 20.3949 15.2638C20.9091 18.3799 20.9091 21.5581 20.3949 24.6742C20.2867 25.3313 19.9598 25.9336 19.4662 26.3847C18.9726 26.8358 18.3409 27.1098 17.672 27.1629L15.5449 27.3322C12.1861 27.5982 8.81124 27.5982 5.45243 27.3322L3.3253 27.1629C2.65638 27.1098 2.0247 26.8358 1.53113 26.3847C1.03756 25.9336 0.710581 25.3313 0.602413 24.6742C0.0882583 21.5581 0.0882583 18.3799 0.602413 15.2638C0.710355 14.6062 1.03742 14.0035 1.5313 13.552C2.02518 13.1006 2.65735 12.8265 3.32673 12.7736L3.97652 12.7229L2.91012 10.0168C2.72155 9.53639 2.58708 9.03674 2.50915 8.52698L2.46507 8.23917C2.21773 6.62605 2.57848 4.97909 3.47829 3.61336C4.37811 2.24764 5.75381 1.25905 7.3422 0.836738C8.93059 0.414425 10.6201 0.588039 12.0876 1.32436C13.5551 2.06069 14.6974 3.30802 15.2961 4.82772L15.4027 5.10002C15.5918 5.57971 15.7269 6.08056 15.8051 6.59129L16.0056 7.90056C16.0197 7.99219 16.0155 8.08568 15.9932 8.17569C15.9709 8.26571 15.931 8.35048 15.8757 8.42517C15.8203 8.49985 15.7507 8.56298 15.6708 8.61096C15.5908 8.65893 15.5022 8.6908 15.4098 8.70475L14.7074 8.81056C14.6151 8.82459 14.5209 8.82043 14.4301 8.79831C14.3394 8.77619 14.254 8.73655 14.1787 8.68165C14.1034 8.62675 14.0398 8.55767 13.9915 8.47835C13.9431 8.39904 13.911 8.31105 13.8969 8.21941L13.6979 6.91014C13.6431 6.55382 13.5487 6.20462 13.4164 5.86893L13.3097 5.59805C12.9355 4.64784 12.2481 3.85138 11.3593 3.33847C10.4706 2.82555 9.43301 2.62642 8.41562 2.77352L8.41419 2.77211ZM10.5001 17.8527C9.93443 17.8527 9.39194 18.0757 8.99196 18.4726C8.59198 18.8694 8.36727 19.4077 8.36727 19.969C8.36727 20.5303 8.59198 21.0686 8.99196 21.4654C9.39194 21.8623 9.93443 22.0853 10.5001 22.0853C11.0657 22.0853 11.6082 21.8623 12.0082 21.4654C12.4082 21.0686 12.6329 20.5303 12.6329 19.969C12.6329 19.4077 12.4082 18.8694 12.0082 18.4726C11.6082 18.0757 11.0657 17.8527 10.5001 17.8527Z" fill="#707084"/>
</svg>
