<svg width="26" height="24" viewBox="0 0 26 24" fill="none" xmlns="http://www.w3.org/2000/svg">
<path fill-rule="evenodd" clip-rule="evenodd" d="M10.601 0.625H15.3983C17.5427 0.625 19.2413 0.625 20.5702 0.8035C21.9375 0.987833 23.0447 1.37517 23.9185 2.24783C24.7912 3.12167 25.1785 4.22883 25.3628 5.59617C25.5413 6.92617 25.5413 8.62367 25.5413 10.768V13.1667C25.5413 13.3987 25.4492 13.6213 25.2851 13.7854C25.121 13.9495 24.8984 14.0417 24.6663 14.0417C24.4343 14.0417 24.2117 13.9495 24.0476 13.7854C23.8835 13.6213 23.7913 13.3987 23.7913 13.1667V12.875H2.20801V13.1667C2.20801 15.3915 2.21034 16.9723 2.37134 18.1717C2.52884 19.3442 2.82517 20.0208 3.31867 20.5143C3.81217 21.0078 4.48884 21.3042 5.66251 21.4617C6.86184 21.6227 8.44151 21.625 10.6663 21.625H14.1663C14.3984 21.625 14.621 21.7172 14.7851 21.8813C14.9492 22.0454 15.0413 22.2679 15.0413 22.5C15.0413 22.7321 14.9492 22.9546 14.7851 23.1187C14.621 23.2828 14.3984 23.375 14.1663 23.375H10.601C8.45668 23.375 6.75801 23.375 5.42918 23.1965C4.06184 23.0122 2.95467 22.6248 2.08084 21.7522C1.20817 20.8783 0.820841 19.7712 0.636508 18.4038C0.458008 17.0738 0.458008 15.3763 0.458008 13.232V10.768C0.458008 8.62367 0.458008 6.925 0.636508 5.59617C0.820841 4.22883 1.20817 3.12167 2.08084 2.24783C2.95467 1.37517 4.06184 0.987833 5.42918 0.8035C6.75918 0.625 8.45668 0.625 10.601 0.625ZM2.20801 11.125H23.7913V10.8333C23.7913 8.6085 23.789 7.02883 23.628 5.82833C23.4705 4.65583 23.1742 3.97917 22.6807 3.48567C22.1872 2.99217 21.5105 2.69583 20.3368 2.53833C19.1387 2.37733 17.5578 2.375 15.333 2.375H10.6663C8.44151 2.375 6.86184 2.37733 5.66134 2.53833C4.48884 2.69583 3.81217 2.99217 3.31867 3.48567C2.82517 3.97917 2.52884 4.65583 2.37134 5.8295C2.21034 7.02883 2.20801 8.6085 2.20801 10.8333V11.125ZM5.99967 4.70833C6.23174 4.70833 6.4543 4.80052 6.61839 4.96461C6.78249 5.12871 6.87467 5.35127 6.87467 5.58333V7.91667C6.87467 8.14873 6.78249 8.37129 6.61839 8.53538C6.4543 8.69948 6.23174 8.79167 5.99967 8.79167C5.76761 8.79167 5.54505 8.69948 5.38096 8.53538C5.21686 8.37129 5.12467 8.14873 5.12467 7.91667V5.58333C5.12467 5.35127 5.21686 5.12871 5.38096 4.96461C5.54505 4.80052 5.76761 4.70833 5.99967 4.70833ZM9.49968 4.70833C9.73174 4.70833 9.9543 4.80052 10.1184 4.96461C10.2825 5.12871 10.3747 5.35127 10.3747 5.58333V7.91667C10.3747 8.14873 10.2825 8.37129 10.1184 8.53538C9.9543 8.69948 9.73174 8.79167 9.49968 8.79167C9.26761 8.79167 9.04505 8.69948 8.88096 8.53538C8.71686 8.37129 8.62468 8.14873 8.62468 7.91667V5.58333C8.62468 5.35127 8.71686 5.12871 8.88096 4.96461C9.04505 4.80052 9.26761 4.70833 9.49968 4.70833ZM13.8747 6.75C13.8747 6.51794 13.9669 6.29538 14.131 6.13128C14.2951 5.96719 14.5176 5.875 14.7497 5.875H19.9997C20.2317 5.875 20.4543 5.96719 20.6184 6.13128C20.7825 6.29538 20.8747 6.51794 20.8747 6.75C20.8747 6.98206 20.7825 7.20462 20.6184 7.36872C20.4543 7.53281 20.2317 7.625 19.9997 7.625H14.7497C14.5176 7.625 14.2951 7.53281 14.131 7.36872C13.9669 7.20462 13.8747 6.98206 13.8747 6.75ZM16.4168 17.5452C16.8707 15.7987 18.6615 14.625 20.5888 14.625C22.0787 14.625 23.4355 15.3017 24.2125 16.3925C24.2792 16.4861 24.3267 16.5919 24.3525 16.7039C24.3782 16.8159 24.3816 16.9319 24.3626 17.0452C24.3435 17.1585 24.3023 17.267 24.2413 17.3644C24.1804 17.4618 24.1008 17.5462 24.0072 17.6128C23.9136 17.6795 23.8077 17.727 23.6958 17.7528C23.5838 17.7785 23.4678 17.782 23.3545 17.7629C23.2412 17.7438 23.1327 17.7026 23.0353 17.6417C22.9379 17.5807 22.8535 17.5011 22.7868 17.4075C22.3668 16.8183 21.5642 16.375 20.5888 16.375C19.4607 16.375 18.6207 16.9373 18.2555 17.635C18.3843 17.6999 18.4951 17.7956 18.578 17.9136C18.6609 18.0316 18.7133 18.1683 18.7307 18.3114C18.748 18.4546 18.7296 18.5999 18.6773 18.7342C18.6249 18.8686 18.5401 18.988 18.4305 19.0817L17.7503 19.665C17.5918 19.8009 17.3898 19.8756 17.181 19.8756C16.9722 19.8756 16.7702 19.8009 16.6117 19.665L15.9303 19.0817C15.7996 18.97 15.7047 18.8223 15.6574 18.657C15.6101 18.4917 15.6126 18.3161 15.6645 18.1522C15.7164 17.9883 15.8154 17.8433 15.9492 17.7353C16.083 17.6274 16.2457 17.5612 16.4168 17.5452ZM5.99967 15.2083C6.23174 15.2083 6.4543 15.3005 6.61839 15.4646C6.78249 15.6287 6.87467 15.8513 6.87467 16.0833V18.4167C6.87467 18.6487 6.78249 18.8713 6.61839 19.0354C6.4543 19.1995 6.23174 19.2917 5.99967 19.2917C5.76761 19.2917 5.54505 19.1995 5.38096 19.0354C5.21686 18.8713 5.12467 18.6487 5.12467 18.4167V16.0833C5.12467 15.8513 5.21686 15.6287 5.38096 15.4646C5.54505 15.3005 5.76761 15.2083 5.99967 15.2083ZM9.49968 15.2083C9.73174 15.2083 9.9543 15.3005 10.1184 15.4646C10.2825 15.6287 10.3747 15.8513 10.3747 16.0833V18.4167C10.3747 18.6487 10.2825 18.8713 10.1184 19.0354C9.9543 19.1995 9.73174 19.2917 9.49968 19.2917C9.26761 19.2917 9.04505 19.1995 8.88096 19.0354C8.71686 18.8713 8.62468 18.6487 8.62468 18.4167V16.0833C8.62468 15.8513 8.71686 15.6287 8.88096 15.4646C9.04505 15.3005 9.26761 15.2083 9.49968 15.2083ZM23.4157 18.335C23.5742 18.1991 23.7762 18.1244 23.985 18.1244C24.1938 18.1244 24.3958 18.1991 24.5543 18.335L25.2357 18.9183C25.3664 19.03 25.4613 19.1777 25.5086 19.343C25.5559 19.5083 25.5535 19.6839 25.5016 19.8478C25.4497 20.0117 25.3506 20.1567 25.2168 20.2647C25.083 20.3726 24.9204 20.4388 24.7492 20.4548C24.2953 22.2013 22.5045 23.375 20.5772 23.375C19.0873 23.375 17.7305 22.6983 16.9535 21.6075C16.8869 21.5139 16.8393 21.4081 16.8136 21.2961C16.7878 21.1841 16.7844 21.0681 16.8034 20.9548C16.8225 20.8415 16.8637 20.733 16.9247 20.6356C16.9857 20.5382 17.0652 20.4538 17.1588 20.3872C17.2525 20.3205 17.3583 20.273 17.4703 20.2472C17.5823 20.2215 17.6982 20.218 17.8115 20.2371C17.9249 20.2562 18.0333 20.2974 18.1307 20.3583C18.2281 20.4193 18.3125 20.4989 18.3792 20.5925C18.7992 21.1817 19.6018 21.625 20.5772 21.625C21.7053 21.625 22.5453 21.0627 22.9105 20.365C22.7817 20.3001 22.6709 20.2044 22.588 20.0864C22.5051 19.9684 22.4527 19.8317 22.4354 19.6886C22.418 19.5454 22.4364 19.4001 22.4887 19.2658C22.5411 19.1314 22.6259 19.012 22.7355 18.9183L23.4157 18.335Z" fill="#707084"/>
</svg>
