<svg width="10" height="10" viewBox="0 0 10 10" fill="none" xmlns="http://www.w3.org/2000/svg">
<path d="M8.125 2.5H9.375V10H1.25V2.5H2.5V1.875H3.125V2.5H7.5V1.875H8.125V2.5ZM8.75 3.125H8.125V3.75H8.75V3.125ZM7.5 3.125H3.125V3.75H7.5V3.125ZM2.5 3.125H1.875V3.75H2.5V3.125ZM1.875 9.375H8.75V4.375H1.875V9.375ZM1.25 1.875V1.25H0.625V8.125H0V0.625H1.25V0H1.875V0.625H6.25V0H6.875V0.625H8.125V1.25H6.875V1.875H6.25V1.25H1.875V1.875H1.25ZM3.125 6.875V6.25H3.75V6.875H3.125ZM4.375 6.875V6.25H5V6.875H4.375ZM5.625 6.875V6.25H6.25V6.875H5.625ZM6.875 6.875V6.25H7.5V6.875H6.875ZM3.125 8.125V7.5H3.75V8.125H3.125ZM4.375 8.125V7.5H5V8.125H4.375ZM5.625 8.125V7.5H6.25V8.125H5.625ZM4.375 5.625V5H5V5.625H4.375ZM5.625 5.625V5H6.25V5.625H5.625ZM6.875 5.625V5H7.5V5.625H6.875Z" fill="#5E3FB6"/>
</svg>
